<svg fill="none" height="40" viewBox="0 0 500 236" xmlns="http://www.w3.org/2000/svg">
<path d="M439.508 73.9997L367.068 0H429.38L500 73.9964V74.2965L429.38 148.293H367.068L439.508 74.2965" fill="#4743F7"></path>
<path d="M404.055 233.721L326.963 147.664L399.231 74.1499H336.438L271.205 142.337L271.706 0.00341797L216.955 0.05886L216.79 233.721V234.641H270.875L271.165 153.46L341.262 233.721H404.055Z" fill="#040B60"></path>
<path d="M187.372 0.00366211L132.617 0.0623689L132.563 74.6328C121.411 74.0718 103.428 73.3249 86.4308 73.3249C37.6572 73.3249 0 109.845 0 153.29C0 196.735 30.4397 235.633 81.6574 235.633C86.8071 235.633 93.4405 235.571 100.572 235.463L132.456 201.79V234.792C134.079 234.743 135.47 234.697 137.021 234.645H186.541L187.372 0.00692692V0.00366211ZM94.0999 192.247C72.2359 192.247 56.9014 173.114 56.9014 153.215C56.9014 133.316 72.4187 117.755 94.0999 117.129C108.739 116.705 122.694 117.076 132.535 117.51L132.481 192.25H94.0963L94.0999 192.247Z" fill="#040B60"></path>
</svg>