<?xml version="1.0" encoding="UTF-8"?><svg id="Layer_1" xmlns="http://www.w3.org/2000/svg" viewBox="0 0 2304.53 1628.72"><defs><style>.cls-1{fill:#040b60;}.cls-2{fill:#4743f7;}</style></defs><polyline class="cls-2" points="1681.07 681.53 1478.93 454.65 1652.81 454.65 1849.87 681.52 1849.87 682.44 1652.81 909.31 1478.93 909.31 1681.07 682.44"/><polygon class="cls-1" points="1584.44 1175.18 1367.02 907.38 1568.68 681.99 1393.46 681.99 1211.43 891.05 1212.83 454.66 1060.05 454.83 1059.59 1171.23 1059.59 1175.08 1210.51 1175.08 1211.32 925.15 1409.08 1175.18 1584.44 1175.18"/><path class="cls-1" d="m977.5,454.66l-152.79.18-.15,228.63c-31.12-1.72-81.3-4.01-128.73-4.01-136.1,0-241.18,111.97-241.18,245.17s84.94,252.46,227.86,252.46c14.37,0,32.88-.19,52.78-.52l88.97-103.24v101.85h150.92l2.32-720.51h0Zm-260.27,589.41c-61.01,0-103.8-58.66-103.8-119.67s43.3-108.72,103.8-110.64c40.85-1.3,79.79-.16,107.25,1.17l-.15,229.15h-107.11.01Z"/></svg>